<svg xmlns="http://www.w3.org/2000/svg" width="172.313" height="100.092" viewBox="0 0 172.313 100.092"><g transform="translate(-244.81 -122.001)"><g transform="translate(278.032 122.001)"><path d="M352.812,182.719a30.359,30.359,0,1,1,30.359-30.359A30.394,30.394,0,0,1,352.812,182.719Zm0-57.21a26.851,26.851,0,1,0,26.85,26.851A26.881,26.881,0,0,0,352.812,125.509Z" transform="translate(-308.648 -122.001)" fill="#474645"/><g transform="translate(0 8.414)"><path d="M387.268,142.656c-2.405-4.779-10.471-7.148-22.437-6.711a30.668,30.668,0,0,1,3.087,3.455c10.045.051,15.009,2.435,16.217,4.833,1.089,2.165-.671,4.833-2.34,6.689-6.5,7.233-22.635,14.723-40.145,18.637l-1.837.411.54,1.8a13.934,13.934,0,0,1,.661,4.487c-1.893-.2-7.7-2.283-12.461-4.322l-.41-.176-.445.042c-15.464,1.458-22.691-1.488-24.182-4.452-1.09-2.165.671-4.832,2.34-6.689a36.521,36.521,0,0,1,7.807-6.227,30.1,30.1,0,0,1,.859-4.521,44.558,44.558,0,0,0-11.275,8.4c-4.348,4.837-3.958,8.441-2.866,10.612,2.712,5.388,12.612,7.716,27.2,6.408,3.531,1.5,10.825,4.432,13.852,4.432a3.28,3.28,0,0,0,.536-.039,2.817,2.817,0,0,0,1.95-1.317c.921-1.475.659-3.962.259-5.841,17.485-4.166,33.5-11.826,40.226-19.308C388.751,148.431,388.361,144.827,387.268,142.656Z" transform="translate(-299.661 -135.894)" fill="#474645"/></g></g><g transform="translate(244.81 202.204)"><path d="M259.109,274.195h-2.187a3.651,3.651,0,0,1-2.873-1.4l-5.687-7.249a3.565,3.565,0,0,1-.509-.807h-.062v9.454H244.81V254.951h2.982v9.069h.062a5.425,5.425,0,0,1,.522-.807l6.522-8.262h3.627l-7.7,9.219Z" transform="translate(-244.81 -254.628)" fill="#474645"/><path d="M448.982,274.195h-2.187a3.651,3.651,0,0,1-2.873-1.4l-5.686-7.249a3.522,3.522,0,0,1-.509-.807h-.062v9.454h-2.981V254.951h2.981v9.069h.062a5.362,5.362,0,0,1,.521-.807l6.522-8.262H448.4l-7.7,9.219Z" transform="translate(-319.68 -254.628)" fill="#474645"/><path d="M282.066,257.311v16.851h-2.982V254.87h.54a2.442,2.442,0,0,1,2.441,2.441Z" transform="translate(-258.325 -254.596)" fill="#474645"/><path d="M312.629,274.195h-1.988a2.648,2.648,0,0,1-2.273-1.29l-2.36-3.953a7.362,7.362,0,0,0-1.671-2.1,2.808,2.808,0,0,0-1.721-.559H301v7.9h-2.982V254.951h6.125a7.084,7.084,0,0,1,4.628,1.348,4.673,4.673,0,0,1,1.633,3.82,5.061,5.061,0,0,1-1.131,3.317,5.945,5.945,0,0,1-3.155,1.926v.05q1.292.447,2.895,3.031ZM301,257.411v6.41h2.646a3.632,3.632,0,0,0,2.64-.956,3.242,3.242,0,0,0,.988-2.435q0-3.019-3.578-3.019Z" transform="translate(-265.791 -254.628)" fill="#474645"/><path d="M335.85,257.311v16.851h-2.982V254.87h.54a2.442,2.442,0,0,1,2.441,2.441Z" transform="translate(-279.533 -254.596)" fill="#474645"/><path d="M375.093,257.511h-2.969v16.684H369.13V257.511h-5.516v-2.56h14.038A2.559,2.559,0,0,1,375.093,257.511Z" transform="translate(-291.657 -254.628)" fill="#474645"/><path d="M393.5,264.6a10.55,10.55,0,0,1,2.553-7.373,8.843,8.843,0,0,1,6.889-2.814,8.347,8.347,0,0,1,6.522,2.733,10.076,10.076,0,0,1,2.46,7.007,10.6,10.6,0,0,1-2.509,7.342,9.5,9.5,0,0,1-13.386.1A9.841,9.841,0,0,1,393.5,264.6Zm3.131-.211a8.179,8.179,0,0,0,1.628,5.237,5.314,5.314,0,0,0,4.4,2.056,5.537,5.537,0,0,0,4.522-1.956,8.051,8.051,0,0,0,1.615-5.286,8.511,8.511,0,0,0-1.559-5.391,5.313,5.313,0,0,0-4.441-1.988,5.485,5.485,0,0,0-4.485,2.062A8.079,8.079,0,0,0,396.628,264.394Z" transform="translate(-303.44 -254.418)" fill="#474645"/><path d="M482.723,254.951l-6.311,12.225v7.019h-2.994v-6.957l-6.162-12.287h1.8a2.555,2.555,0,0,1,2.309,1.46l3.183,6.7q0,.013.46,1.317h.038a5.475,5.475,0,0,1,.484-1.292l4.025-8.187Z" transform="translate(-332.524 -254.628)" fill="#474645"/><path d="M498.886,264.6a10.55,10.55,0,0,1,2.553-7.373,8.841,8.841,0,0,1,6.888-2.814,8.349,8.349,0,0,1,6.523,2.733,10.076,10.076,0,0,1,2.46,7.007,10.6,10.6,0,0,1-2.51,7.342,9.5,9.5,0,0,1-13.386.1A9.839,9.839,0,0,1,498.886,264.6Zm3.131-.211a8.176,8.176,0,0,0,1.628,5.237,5.313,5.313,0,0,0,4.4,2.056,5.538,5.538,0,0,0,4.522-1.956,8.055,8.055,0,0,0,1.615-5.286,8.511,8.511,0,0,0-1.559-5.391,5.315,5.315,0,0,0-4.442-1.988,5.485,5.485,0,0,0-4.484,2.062A8.079,8.079,0,0,0,502.017,264.394Z" transform="translate(-344.997 -254.418)" fill="#474645"/></g></g></svg>