<svg xmlns="http://www.w3.org/2000/svg" width="145.587" height="102.66" viewBox="0 0 145.587 102.66"><g transform="translate(-137.545 -717.565)"><g transform="translate(137.545 802.788)"><path d="M149.73,849.168l-1.847.012a3.081,3.081,0,0,1-2.434-1.164l-4.844-6.091a3,3,0,0,1-.435-.679h-.052l.053,7.985-2.518.017L137.545,833l2.518-.017.051,7.659h.052a4.454,4.454,0,0,1,.436-.685l5.462-7.014,3.064-.02-6.453,7.828Z" transform="translate(-137.545 -831.81)" fill="#474645"/><path d="M279.513,848.31l-1.847.012a3.082,3.082,0,0,1-2.434-1.164l-4.844-6.09a3.006,3.006,0,0,1-.434-.679H269.9l.053,7.985-2.518.017-.107-16.253,2.518-.017.051,7.659h.052a4.557,4.557,0,0,1,.436-.685l5.463-7.013,3.064-.02-6.454,7.828Z" transform="translate(-170.198 -831.595)" fill="#474645"/><path d="M186.362,848.94l-1.679.011a2.237,2.237,0,0,1-1.927-1.077l-2.015-3.325a6.227,6.227,0,0,0-1.423-1.764,2.372,2.372,0,0,0-1.456-.463l-1.364.009.044,6.674-2.518.016-.107-16.253,5.172-.034A5.985,5.985,0,0,1,183,833.847a3.947,3.947,0,0,1,1.4,3.217,4.279,4.279,0,0,1-.936,2.808,5.025,5.025,0,0,1-2.655,1.644v.042a5.813,5.813,0,0,1,2.461,2.544Zm-9.914-14.11.035,5.414,2.235-.014a3.071,3.071,0,0,0,2.224-.823,2.738,2.738,0,0,0,.82-2.062q-.017-2.549-3.039-2.53Z" transform="translate(-146.696 -831.764)" fill="#474645"/><g transform="translate(17.559 1.011)"><path d="M163.536,839.654v.008l.061,9.188v.008l.01,1.56-2.518.017-.01-1.56v-.008l-.061-9.189v-.008l-.01-1.559,2.518-.016Z" transform="translate(-161.007 -834.124)" fill="#474645"/><path d="M163.463,832.789l.016,2.518-1.266.008a1.169,1.169,0,0,1-1.177-1.162l-.009-1.349Z" transform="translate(-161.012 -832.789)" fill="#474645"/></g><g transform="translate(45.073 1.011)"><path d="M200.3,839.654v.008l.061,9.188v.008l.01,1.56-2.518.017-.01-1.56v-.008l-.061-9.189v-.008l-.01-1.559,2.518-.016Z" transform="translate(-197.77 -834.124)" fill="#474645"/><path d="M200.226,832.789l.016,2.518-1.266.008a1.17,1.17,0,0,1-1.177-1.162l-.009-1.349Z" transform="translate(-197.775 -832.789)" fill="#474645"/></g><path d="M228.461,834.555l-2.508.017.093,14.091-2.528.017-.094-14.092-4.659.031-.014-2.161,11.857-.079h0A2.162,2.162,0,0,1,228.461,834.555Z" transform="translate(-157.976 -831.674)" fill="#474645"/><path d="M239.251,840.571a8.91,8.91,0,0,1,2.115-6.242,7.468,7.468,0,0,1,5.8-2.415,7.053,7.053,0,0,1,5.524,2.272,8.509,8.509,0,0,1,2.116,5.9,8.954,8.954,0,0,1-2.078,6.215,8.025,8.025,0,0,1-11.305.159A8.311,8.311,0,0,1,239.251,840.571Zm2.643-.2a6.909,6.909,0,0,0,1.4,4.413,4.488,4.488,0,0,0,3.726,1.712,4.678,4.678,0,0,0,3.808-1.678,6.8,6.8,0,0,0,1.334-4.474,7.193,7.193,0,0,0-1.346-4.545,4.491,4.491,0,0,0-3.762-1.654,4.632,4.632,0,0,0-3.776,1.767A6.827,6.827,0,0,0,241.893,840.375Z" transform="translate(-163.134 -831.557)" fill="#474645"/><path d="M302.656,831.9l-5.262,10.36.039,5.928-2.528.016-.039-5.876-5.273-10.342,1.521-.01a2.16,2.16,0,0,1,1.959,1.22l2.726,5.643q0,.011.4,1.11h.031a4.6,4.6,0,0,1,.4-1.094l3.354-6.937Z" transform="translate(-175.8 -831.554)" fill="#474645"/><path d="M311.287,840.095a8.907,8.907,0,0,1,2.115-6.242,7.465,7.465,0,0,1,5.8-2.415,7.051,7.051,0,0,1,5.524,2.271,8.512,8.512,0,0,1,2.116,5.9,8.955,8.955,0,0,1-2.078,6.216,8.025,8.025,0,0,1-11.305.159A8.312,8.312,0,0,1,311.287,840.095Zm2.643-.2a6.906,6.906,0,0,0,1.4,4.413,4.49,4.49,0,0,0,3.726,1.712,4.677,4.677,0,0,0,3.808-1.678,6.8,6.8,0,0,0,1.334-4.474,7.189,7.189,0,0,0-1.346-4.545,4.489,4.489,0,0,0-3.762-1.654,4.632,4.632,0,0,0-3.776,1.767A6.821,6.821,0,0,0,313.93,839.9Z" transform="translate(-181.258 -831.438)" fill="#474645"/></g><g transform="translate(169.883 717.565)"><path d="M248.419,745.564c-1.622-9.818-7.1-16.549-13.118-21.464-6.383-5.212-9.781-5.985-19.922-6.51-6.294-.326-16.841,2.7-23.12,8.821s-12.127,17.98-11.451,28.852a32.474,32.474,0,0,0,3.433,13.4l-.079.036s11.481,23.635,29.928,21.661c.3-.032.287-.5-.073-.632-1.458-.252-6.595-1.524-9.3-3.979a1.026,1.026,0,0,1,.947-1.752c2,.516,3.809.9,5.187,1.2,4,.864,15.913-.378,22.476-5.359C248.522,768.3,250.04,755.382,248.419,745.564Z" transform="translate(-180.755 -717.565)" fill="#474645"/><circle cx="30.465" cy="30.465" r="30.465" transform="translate(3.679 3.366)" fill="#fff"/></g></g></svg>